<svg width="49" height="48" viewBox="0 0 49 48" fill="none" xmlns="http://www.w3.org/2000/svg">
<rect x="0.5" width="48" height="48" rx="5" fill="#F5FAFF"/>
<path d="M29.2977 21.5786C29.5357 21.8165 29.7674 22.0482 29.9476 22.2605C30.1455 22.4937 30.3583 22.7895 30.4838 23.1758C30.6578 23.7114 30.6578 24.2883 30.4838 24.8239C30.3583 25.2102 30.1455 25.506 29.9476 25.7392C29.7674 25.9514 29.5357 26.1831 29.2977 26.421L26.7761 28.9426C26.2554 29.4633 25.4112 29.4633 24.8905 28.9426C24.3698 28.4219 24.3698 27.5777 24.8905 27.057L26.6143 25.3332H13.8333C13.097 25.3332 12.5 24.7362 12.5 23.9998C12.5 23.2635 13.097 22.6665 13.8333 22.6665H26.6143L24.8905 20.9426C24.3698 20.4219 24.3698 19.5777 24.8905 19.057C25.4112 18.5363 26.2554 18.5363 26.7761 19.057L29.2977 21.5786Z" fill="#437EF7"/>
<path d="M19.1667 14.9332C19.1667 13.4397 19.1667 12.693 19.4573 12.1225C19.713 11.6208 20.1209 11.2128 20.6227 10.9572C21.1931 10.6665 21.9399 10.6665 23.4333 10.6665H30.9C32.3935 10.6665 33.1402 10.6665 33.7106 10.9572C34.2124 11.2128 34.6204 11.6208 34.876 12.1225C35.1667 12.693 35.1667 13.4397 35.1667 14.9332V33.0665C35.1667 34.56 35.1667 35.3067 34.876 35.8771C34.6204 36.3789 34.2124 36.7869 33.7106 37.0425C33.1402 37.3332 32.3935 37.3332 30.9 37.3332H23.4333C21.9399 37.3332 21.1931 37.3332 20.6227 37.0425C20.1209 36.7869 19.713 36.3789 19.4573 35.8771C19.1667 35.3067 19.1667 34.56 19.1667 33.0665V27.9998H21.8333C21.8333 29.0235 22.2238 30.0472 23.0049 30.8283C24.567 32.3904 27.0996 32.3904 28.6617 30.8283L31.2149 28.2751C31.4289 28.0613 31.7282 27.7623 31.9805 27.465C32.2863 27.1047 32.7426 26.5016 33.02 25.6479C33.368 24.5768 33.368 23.4229 33.02 22.3518C32.7426 21.4981 32.2863 20.8949 31.9805 20.5347C31.7281 20.2374 31.4289 19.9384 31.2149 19.7246L28.6617 17.1714C27.0996 15.6093 24.567 15.6093 23.0049 17.1714C22.2238 17.9525 21.8333 18.9761 21.8333 19.9998H19.1667V14.9332Z" fill="#437EF7"/>
</svg>
