<svg width="83" height="24" viewBox="0 0 83 24" fill="none" xmlns="http://www.w3.org/2000/svg">
<rect width="83" height="24" rx="5" fill="#5390F8"/>
<path d="M9.97869 17H8.34801L12.0121 6.81818H13.7869L17.451 17H15.8203L12.9418 8.66761H12.8622L9.97869 17ZM10.2521 13.0128H15.5419V14.3054H10.2521V13.0128ZM21.4376 17.1491C20.8212 17.1491 20.271 16.9917 19.7871 16.6768C19.3065 16.3587 18.9286 15.9062 18.6536 15.3196C18.3818 14.7296 18.2459 14.022 18.2459 13.1967C18.2459 12.3714 18.3834 11.6655 18.6585 11.0788C18.9369 10.4922 19.3181 10.0431 19.802 9.73153C20.2859 9.41998 20.8344 9.2642 21.4476 9.2642C21.9215 9.2642 22.3027 9.34375 22.5911 9.50284C22.8827 9.65862 23.1081 9.84091 23.2672 10.0497C23.4296 10.2585 23.5555 10.4425 23.645 10.6016H23.7345V6.81818H25.221V17H23.7693V15.8118H23.645C23.5555 15.9742 23.4263 16.1598 23.2572 16.3686C23.0915 16.5774 22.8628 16.7597 22.5712 16.9155C22.2795 17.0713 21.9017 17.1491 21.4376 17.1491ZM21.7658 15.8814C22.1933 15.8814 22.5546 15.7687 22.8496 15.5433C23.1479 15.3146 23.3732 14.9981 23.5257 14.5938C23.6815 14.1894 23.7594 13.7187 23.7594 13.1818C23.7594 12.6515 23.6831 12.1875 23.5307 11.7898C23.3782 11.392 23.1545 11.0821 22.8595 10.8601C22.5645 10.638 22.2 10.527 21.7658 10.527C21.3183 10.527 20.9455 10.643 20.6472 10.875C20.3489 11.107 20.1235 11.4235 19.971 11.8246C19.8219 12.2256 19.7473 12.678 19.7473 13.1818C19.7473 13.6922 19.8235 14.1513 19.976 14.5589C20.1285 14.9666 20.3538 15.2898 20.6521 15.5284C20.9537 15.7637 21.325 15.8814 21.7658 15.8814ZM33.7753 9.36364L31.0061 17H29.4152L26.6411 9.36364H28.237L30.1709 15.2401H30.2505L32.1794 9.36364H33.7753ZM37.0759 17.169C36.592 17.169 36.1545 17.0795 35.7634 16.9006C35.3723 16.7183 35.0624 16.4548 34.8337 16.1101C34.6083 15.7654 34.4956 15.3428 34.4956 14.8423C34.4956 14.4115 34.5785 14.0568 34.7442 13.7784C34.9099 13.5 35.1337 13.2796 35.4154 13.1172C35.6971 12.9548 36.012 12.8321 36.36 12.7493C36.708 12.6664 37.0626 12.6035 37.4239 12.5604C37.8813 12.5073 38.2525 12.4643 38.5375 12.4311C38.8226 12.3946 39.0297 12.3366 39.159 12.2571C39.2882 12.1776 39.3529 12.0483 39.3529 11.8693V11.8345C39.3529 11.4003 39.2302 11.0639 38.985 10.8253C38.743 10.5866 38.3818 10.4673 37.9012 10.4673C37.4007 10.4673 37.0063 10.5784 36.7179 10.8004C36.4329 11.0192 36.2357 11.2628 36.1263 11.5312L34.7293 11.2131C34.895 10.7491 35.137 10.3745 35.4551 10.0895C35.7766 9.80114 36.1462 9.59233 36.5638 9.46307C36.9814 9.33049 37.4206 9.2642 37.8813 9.2642C38.1862 9.2642 38.5094 9.30066 38.8507 9.37358C39.1954 9.44318 39.5169 9.57244 39.8152 9.76136C40.1168 9.95028 40.3638 10.2204 40.556 10.5717C40.7482 10.9197 40.8444 11.3722 40.8444 11.929V17H39.3926V15.956H39.333C39.2369 16.1482 39.0927 16.3371 38.9005 16.5227C38.7082 16.7083 38.4613 16.8625 38.1597 16.9851C37.8581 17.1077 37.4968 17.169 37.0759 17.169ZM37.399 15.9759C37.81 15.9759 38.1614 15.8946 38.453 15.7322C38.748 15.5698 38.9717 15.3577 39.1242 15.0959C39.28 14.8307 39.3578 14.5473 39.3578 14.2457V13.2614C39.3048 13.3144 39.2021 13.3641 39.0496 13.4105C38.9005 13.4536 38.7298 13.4917 38.5375 13.5249C38.3453 13.5547 38.158 13.5829 37.9757 13.6094C37.7935 13.6326 37.641 13.6525 37.5184 13.669C37.23 13.7055 36.9665 13.7668 36.7279 13.853C36.4926 13.9392 36.3036 14.0634 36.1611 14.2259C36.0219 14.3849 35.9523 14.5971 35.9523 14.8622C35.9523 15.2301 36.0882 15.5085 36.36 15.6974C36.6318 15.883 36.9781 15.9759 37.399 15.9759ZM44.2108 12.4659V17H42.7243V9.36364H44.1511V10.6065H44.2456C44.4213 10.2022 44.6964 9.87737 45.0709 9.6321C45.4487 9.38684 45.9243 9.2642 46.4977 9.2642C47.0181 9.2642 47.4738 9.37358 47.8649 9.59233C48.256 9.80777 48.5593 10.1293 48.7747 10.5568C48.9902 10.9844 49.0979 11.513 49.0979 12.1428V17H47.6114V12.3217C47.6114 11.7682 47.4672 11.3357 47.1788 11.0241C46.8905 10.7093 46.4944 10.5518 45.9906 10.5518C45.6459 10.5518 45.3393 10.6264 45.0709 10.7756C44.8057 10.9247 44.5953 11.1435 44.4395 11.4318C44.287 11.7169 44.2108 12.0616 44.2108 12.4659ZM54.2081 17.1541C53.469 17.1541 52.8326 16.9867 52.299 16.652C51.7687 16.3139 51.361 15.8482 51.076 15.255C50.791 14.6617 50.6484 13.9822 50.6484 13.2166C50.6484 12.4411 50.7943 11.7566 51.0859 11.1634C51.3776 10.5668 51.7886 10.1011 52.3189 9.76633C52.8492 9.43158 53.474 9.2642 54.1932 9.2642C54.7732 9.2642 55.2902 9.37192 55.7443 9.58736C56.1984 9.79948 56.5646 10.0978 56.843 10.4822C57.1248 10.8667 57.2921 11.3158 57.3452 11.8295H55.8984C55.8189 11.4716 55.6366 11.1634 55.3516 10.9048C55.0698 10.6463 54.692 10.517 54.218 10.517C53.8037 10.517 53.4408 10.6264 53.1293 10.8452C52.821 11.0606 52.5807 11.3688 52.4084 11.7699C52.236 12.1676 52.1499 12.6383 52.1499 13.1818C52.1499 13.7386 52.2344 14.2192 52.4034 14.6236C52.5724 15.0279 52.8111 15.3411 53.1193 15.5632C53.4309 15.7853 53.7971 15.8963 54.218 15.8963C54.4998 15.8963 54.755 15.8449 54.9837 15.7422C55.2157 15.6361 55.4096 15.4853 55.5653 15.2898C55.7244 15.0942 55.8355 14.8589 55.8984 14.5838H57.3452C57.2921 15.0777 57.1314 15.5185 56.8629 15.9062C56.5945 16.294 56.2348 16.599 55.7841 16.821C55.3366 17.0431 54.8113 17.1541 54.2081 17.1541ZM62.126 17.1541C61.3737 17.1541 60.7257 16.9934 60.1821 16.6719C59.6419 16.3471 59.2243 15.8913 58.9293 15.3047C58.6376 14.7147 58.4918 14.0237 58.4918 13.2315C58.4918 12.4493 58.6376 11.7599 58.9293 11.1634C59.2243 10.5668 59.6353 10.1011 60.1623 9.76633C60.6926 9.43158 61.3123 9.2642 62.0216 9.2642C62.4525 9.2642 62.8701 9.33546 63.2745 9.47798C63.6788 9.6205 64.0418 9.84422 64.3632 10.1491C64.6847 10.4541 64.9383 10.8501 65.1239 11.3374C65.3095 11.8213 65.4023 12.4096 65.4023 13.1023V13.6293H59.332V12.5156H63.9456C63.9456 12.1245 63.8661 11.7782 63.707 11.4766C63.5479 11.1716 63.3242 10.9313 63.0358 10.7557C62.7508 10.58 62.416 10.4922 62.0316 10.4922C61.614 10.4922 61.2494 10.5949 60.9378 10.8004C60.6296 11.0026 60.3909 11.2678 60.2219 11.5959C60.0562 11.9207 59.9733 12.2737 59.9733 12.6548V13.5249C59.9733 14.0353 60.0628 14.4695 60.2418 14.8274C60.4241 15.1854 60.6776 15.4588 61.0025 15.6477C61.3273 15.8333 61.7068 15.9261 62.1409 15.9261C62.4227 15.9261 62.6795 15.8864 62.9115 15.8068C63.1436 15.724 63.3441 15.6013 63.5131 15.4389C63.6821 15.2765 63.8114 15.076 63.9009 14.8374L65.3078 15.0909C65.1952 15.5052 64.993 15.8681 64.7013 16.1797C64.413 16.4879 64.05 16.7282 63.6125 16.9006C63.1784 17.0696 62.6828 17.1541 62.126 17.1541ZM69.8103 17.1491C69.1938 17.1491 68.6436 16.9917 68.1597 16.6768C67.6791 16.3587 67.3013 15.9062 67.0262 15.3196C66.7544 14.7296 66.6185 14.022 66.6185 13.1967C66.6185 12.3714 66.7561 11.6655 67.0312 11.0788C67.3096 10.4922 67.6907 10.0431 68.1746 9.73153C68.6585 9.41998 69.2071 9.2642 69.8202 9.2642C70.2942 9.2642 70.6754 9.34375 70.9637 9.50284C71.2554 9.65862 71.4808 9.84091 71.6398 10.0497C71.8022 10.2585 71.9282 10.4425 72.0177 10.6016H72.1072V6.81818H73.5937V17H72.142V15.8118H72.0177C71.9282 15.9742 71.7989 16.1598 71.6299 16.3686C71.4642 16.5774 71.2355 16.7597 70.9438 16.9155C70.6522 17.0713 70.2743 17.1491 69.8103 17.1491ZM70.1384 15.8814C70.566 15.8814 70.9272 15.7687 71.2222 15.5433C71.5205 15.3146 71.7459 14.9981 71.8984 14.5938C72.0541 14.1894 72.132 13.7187 72.132 13.1818C72.132 12.6515 72.0558 12.1875 71.9033 11.7898C71.7509 11.392 71.5272 11.0821 71.2322 10.8601C70.9372 10.638 70.5726 10.527 70.1384 10.527C69.691 10.527 69.3181 10.643 69.0198 10.875C68.7215 11.107 68.4961 11.4235 68.3437 11.8246C68.1945 12.2256 68.12 12.678 68.12 13.1818C68.12 13.6922 68.1962 14.1513 68.3486 14.5589C68.5011 14.9666 68.7265 15.2898 69.0248 15.5284C69.3264 15.7637 69.6976 15.8814 70.1384 15.8814Z" fill="white"/>
</svg>
