<svg width="49" height="48" viewBox="0 0 49 48" fill="none" xmlns="http://www.w3.org/2000/svg">
<rect x="0.5" width="48" height="48" rx="5" fill="#F5FAFF"/>
<path d="M17.8333 17.3335C17.8333 14.388 20.2211 12.0002 23.1667 12.0002C26.1122 12.0002 28.5 14.388 28.5 17.3335C28.5 18.0699 29.097 18.6668 29.8333 18.6668C30.5697 18.6668 31.1667 18.0699 31.1667 17.3335C31.1667 12.9152 27.5849 9.3335 23.1667 9.3335C18.7484 9.3335 15.1667 12.9152 15.1667 17.3335C15.1667 18.4688 15.404 19.5522 15.8329 20.534C16.1277 21.2088 16.9138 21.5168 17.5886 21.222C18.2633 20.9271 18.5714 20.1411 18.2765 19.4663C17.9919 18.8149 17.8333 18.0945 17.8333 17.3335Z" fill="#437EF7"/>
<path d="M35.07 27.3578L32.5476 38.6668L20.5032 38.6668L19.6758 36.1938C19.1038 34.4843 17.8737 33.0712 16.256 32.2654L13.9892 31.1362C12.7904 30.539 12.2148 29.1544 12.6386 27.8876C13.1569 26.3385 14.9322 25.6059 16.3981 26.3362L20.5032 28.3811L20.5 17.3335C20.5 15.9133 21.7412 14.6668 23.1667 14.6668C24.5921 14.6668 25.8333 15.8181 25.8333 17.2383V21.3335L31.8109 22.5445C34.0813 22.9215 35.5694 25.1192 35.07 27.3578Z" fill="#437EF7"/>
</svg>
