<svg width="53" height="24" viewBox="0 0 53 24" fill="none" xmlns="http://www.w3.org/2000/svg">
<rect x="0.5" width="52" height="24" rx="5" fill="#5390F8"/>
<path d="M9.61861 17V6.81818H13.3473C14.0698 6.81818 14.6681 6.9375 15.142 7.17614C15.616 7.41146 15.9706 7.7313 16.206 8.13565C16.4413 8.53669 16.5589 8.98911 16.5589 9.4929C16.5589 9.91714 16.4811 10.2751 16.3253 10.5668C16.1695 10.8551 15.9607 11.0871 15.6989 11.2628C15.4403 11.4351 15.1553 11.5611 14.8438 11.6406V11.7401C15.1818 11.7566 15.5116 11.866 15.8331 12.0682C16.1579 12.267 16.4264 12.5504 16.6385 12.9183C16.8506 13.2862 16.9567 13.7337 16.9567 14.2607C16.9567 14.781 16.834 15.2483 16.5888 15.6626C16.3468 16.0736 15.9723 16.4001 15.4652 16.642C14.9581 16.8807 14.3101 17 13.5213 17H9.61861ZM11.1548 15.6825H13.3722C14.108 15.6825 14.6349 15.54 14.9531 15.255C15.2713 14.9699 15.4304 14.6136 15.4304 14.1861C15.4304 13.8646 15.3492 13.5696 15.1868 13.3011C15.0244 13.0327 14.7924 12.8189 14.4908 12.6598C14.1925 12.5007 13.8378 12.4212 13.4268 12.4212H11.1548V15.6825ZM11.1548 11.223H13.2131C13.5578 11.223 13.8677 11.1567 14.1428 11.0241C14.4212 10.8916 14.6416 10.706 14.804 10.4673C14.9697 10.2254 15.0526 9.94034 15.0526 9.61222C15.0526 9.19129 14.9051 8.8383 14.6101 8.55327C14.3151 8.26823 13.8627 8.12571 13.2528 8.12571H11.1548V11.223ZM20.7817 17.169C20.2978 17.169 19.8603 17.0795 19.4692 16.9006C19.0781 16.7183 18.7683 16.4548 18.5396 16.1101C18.3142 15.7654 18.2015 15.3428 18.2015 14.8423C18.2015 14.4115 18.2844 14.0568 18.4501 13.7784C18.6158 13.5 18.8395 13.2796 19.1212 13.1172C19.403 12.9548 19.7178 12.8321 20.0658 12.7493C20.4138 12.6664 20.7685 12.6035 21.1298 12.5604C21.5871 12.5073 21.9584 12.4643 22.2434 12.4311C22.5284 12.3946 22.7356 12.3366 22.8648 12.2571C22.9941 12.1776 23.0587 12.0483 23.0587 11.8693V11.8345C23.0587 11.4003 22.9361 11.0639 22.6908 10.8253C22.4489 10.5866 22.0876 10.4673 21.607 10.4673C21.1066 10.4673 20.7121 10.5784 20.4238 10.8004C20.1388 11.0192 19.9415 11.2628 19.8322 11.5312L18.4352 11.2131C18.6009 10.7491 18.8428 10.3745 19.161 10.0895C19.4825 9.80114 19.8521 9.59233 20.2697 9.46307C20.6873 9.33049 21.1264 9.2642 21.5871 9.2642C21.8921 9.2642 22.2152 9.30066 22.5566 9.37358C22.9013 9.44318 23.2228 9.57244 23.5211 9.76136C23.8227 9.95028 24.0696 10.2204 24.2619 10.5717C24.4541 10.9197 24.5502 11.3722 24.5502 11.929V17H23.0985V15.956H23.0388C22.9427 16.1482 22.7986 16.3371 22.6063 16.5227C22.4141 16.7083 22.1672 16.8625 21.8656 16.9851C21.5639 17.1077 21.2027 17.169 20.7817 17.169ZM21.1049 15.9759C21.5159 15.9759 21.8672 15.8946 22.1589 15.7322C22.4539 15.5698 22.6776 15.3577 22.83 15.0959C22.9858 14.8307 23.0637 14.5473 23.0637 14.2457V13.2614C23.0107 13.3144 22.9079 13.3641 22.7555 13.4105C22.6063 13.4536 22.4356 13.4917 22.2434 13.5249C22.0512 13.5547 21.8639 13.5829 21.6816 13.6094C21.4993 13.6326 21.3469 13.6525 21.2242 13.669C20.9359 13.7055 20.6724 13.7668 20.4337 13.853C20.1984 13.9392 20.0095 14.0634 19.867 14.2259C19.7278 14.3849 19.6582 14.5971 19.6582 14.8622C19.6582 15.2301 19.7941 15.5085 20.0658 15.6974C20.3376 15.883 20.684 15.9759 21.1049 15.9759ZM32.1524 11.228L30.8051 11.4666C30.7488 11.2943 30.6593 11.1302 30.5367 10.9744C30.4174 10.8187 30.255 10.6911 30.0495 10.5916C29.844 10.4922 29.5871 10.4425 29.2789 10.4425C28.8579 10.4425 28.5066 10.5369 28.2249 10.7259C27.9432 10.9115 27.8023 11.1518 27.8023 11.4467C27.8023 11.7019 27.8968 11.9074 28.0857 12.0632C28.2746 12.219 28.5795 12.3466 29.0005 12.446L30.2135 12.7244C30.9162 12.8868 31.4399 13.1371 31.7846 13.4751C32.1292 13.8132 32.3016 14.2524 32.3016 14.7926C32.3016 15.25 32.169 15.6577 31.9039 16.0156C31.642 16.3703 31.2758 16.6487 30.8051 16.8509C30.3378 17.053 29.7959 17.1541 29.1794 17.1541C28.3243 17.1541 27.6266 16.9718 27.0864 16.6072C26.5462 16.2393 26.2147 15.7173 26.0921 15.0412L27.5289 14.8224C27.6184 15.197 27.8023 15.4804 28.0807 15.6726C28.3591 15.8615 28.7221 15.956 29.1695 15.956C29.6567 15.956 30.0462 15.8549 30.3378 15.6527C30.6295 15.4472 30.7753 15.197 30.7753 14.902C30.7753 14.6634 30.6858 14.4628 30.5069 14.3004C30.3312 14.138 30.0611 14.0154 29.6965 13.9325L28.4039 13.6491C27.6913 13.4867 27.1643 13.2282 26.8229 12.8736C26.4848 12.5189 26.3158 12.0698 26.3158 11.5263C26.3158 11.0755 26.4417 10.6811 26.6936 10.343C26.9455 10.005 27.2935 9.74148 27.7377 9.55256C28.1818 9.36032 28.6906 9.2642 29.264 9.2642C30.0892 9.2642 30.7389 9.44318 31.2128 9.80114C31.6868 10.1558 32 10.6314 32.1524 11.228ZM33.836 17V9.36364H35.3225V17H33.836ZM34.5867 8.18537C34.3282 8.18537 34.1061 8.09919 33.9205 7.92685C33.7382 7.75118 33.6471 7.54238 33.6471 7.30043C33.6471 7.05516 33.7382 6.84635 33.9205 6.67401C34.1061 6.49834 34.3282 6.41051 34.5867 6.41051C34.8452 6.41051 35.0656 6.49834 35.2479 6.67401C35.4335 6.84635 35.5264 7.05516 35.5264 7.30043C35.5264 7.54238 35.4335 7.75118 35.2479 7.92685C35.0656 8.09919 34.8452 8.18537 34.5867 8.18537ZM40.439 17.1541C39.6998 17.1541 39.0635 16.9867 38.5299 16.652C37.9996 16.3139 37.5919 15.8482 37.3069 15.255C37.0218 14.6617 36.8793 13.9822 36.8793 13.2166C36.8793 12.4411 37.0251 11.7566 37.3168 11.1634C37.6085 10.5668 38.0194 10.1011 38.5498 9.76633C39.0801 9.43158 39.7048 9.2642 40.424 9.2642C41.0041 9.2642 41.5211 9.37192 41.9752 9.58736C42.4293 9.79948 42.7955 10.0978 43.0739 10.4822C43.3556 10.8667 43.523 11.3158 43.576 11.8295H42.1293C42.0498 11.4716 41.8675 11.1634 41.5824 10.9048C41.3007 10.6463 40.9229 10.517 40.4489 10.517C40.0346 10.517 39.6717 10.6264 39.3601 10.8452C39.0519 11.0606 38.8116 11.3688 38.6392 11.7699C38.4669 12.1676 38.3807 12.6383 38.3807 13.1818C38.3807 13.7386 38.4652 14.2192 38.6343 14.6236C38.8033 15.0279 39.0419 15.3411 39.3502 15.5632C39.6617 15.7853 40.028 15.8963 40.4489 15.8963C40.7306 15.8963 40.9858 15.8449 41.2145 15.7422C41.4465 15.6361 41.6404 15.4853 41.7962 15.2898C41.9553 15.0942 42.0663 14.8589 42.1293 14.5838H43.576C43.523 15.0777 43.3623 15.5185 43.0938 15.9062C42.8253 16.294 42.4657 16.599 42.015 16.821C41.5675 17.0431 41.0422 17.1541 40.439 17.1541Z" fill="white"/>
</svg>
