<svg width="49" height="48" viewBox="0 0 49 48" fill="none" xmlns="http://www.w3.org/2000/svg">
<rect x="0.5" width="48" height="48" rx="5" fill="#F5FAFF"/>
<path fill-rule="evenodd" clip-rule="evenodd" d="M25.8333 10.6663C25.8333 9.92996 25.2364 9.33301 24.5 9.33301C23.7636 9.33301 23.1667 9.92996 23.1667 10.6663V11.9997C19.4848 11.9997 16.5 14.9844 16.5 18.6663C16.5 22.3482 19.4848 25.333 23.1667 25.333V33.333C20.9575 33.333 19.1667 31.5421 19.1667 29.333C19.1667 28.5966 18.5697 27.9997 17.8333 27.9997C17.097 27.9997 16.5 28.5966 16.5 29.333C16.5 33.0149 19.4848 35.9997 23.1667 35.9997L23.1667 37.333C23.1667 38.0694 23.7636 38.6663 24.5 38.6663C25.2364 38.6663 25.8333 38.0694 25.8333 37.333L25.8333 35.9997C29.5152 35.9997 32.5 33.0149 32.5 29.333C32.5 25.6511 29.5152 22.6663 25.8333 22.6663V14.6663C28.0425 14.6663 29.8333 16.4572 29.8333 18.6663C29.8333 19.4027 30.4303 19.9997 31.1667 19.9997C31.903 19.9997 32.5 19.4027 32.5 18.6663C32.5 14.9844 29.5152 11.9997 25.8333 11.9997V10.6663ZM29.8333 29.333C29.8333 31.5421 28.0425 33.333 25.8333 33.333V25.333C28.0425 25.333 29.8333 27.1239 29.8333 29.333ZM19.1667 18.6663C19.1667 16.4572 20.9575 14.6663 23.1667 14.6663V22.6663C20.9575 22.6663 19.1667 20.8755 19.1667 18.6663Z" fill="#437EF7"/>
</svg>
