<svg width="45" height="24" viewBox="0 0 45 24" fill="none" xmlns="http://www.w3.org/2000/svg">
<rect width="45" height="24" rx="5" fill="#5390F8"/>
<path d="M9.11861 17V6.81818H15.5021V8.14062H10.6548V11.2429H15.169V12.5604H10.6548V15.6776H15.5618V17H9.11861ZM18.8213 6.81818V17H17.3348V6.81818H18.8213ZM20.7212 17V9.36364H22.2077V17H20.7212ZM21.4719 8.18537C21.2134 8.18537 20.9913 8.09919 20.8057 7.92685C20.6234 7.75118 20.5322 7.54238 20.5322 7.30043C20.5322 7.05516 20.6234 6.84635 20.8057 6.67401C20.9913 6.49834 21.2134 6.41051 21.4719 6.41051C21.7304 6.41051 21.9508 6.49834 22.1331 6.67401C22.3187 6.84635 22.4115 7.05516 22.4115 7.30043C22.4115 7.54238 22.3187 7.75118 22.1331 7.92685C21.9508 8.09919 21.7304 8.18537 21.4719 8.18537ZM27.6721 9.36364V10.5568H23.501V9.36364H27.6721ZM24.6196 7.53409H26.1061V14.7578C26.1061 15.0462 26.1492 15.2633 26.2353 15.4091C26.3215 15.5516 26.4325 15.6494 26.5684 15.7024C26.7076 15.7521 26.8584 15.777 27.0208 15.777C27.1402 15.777 27.2446 15.7687 27.3341 15.7521C27.4235 15.7356 27.4931 15.7223 27.5429 15.7124L27.8113 16.9403C27.7252 16.9735 27.6025 17.0066 27.4434 17.0398C27.2843 17.0762 27.0855 17.0961 26.8468 17.0994C26.4557 17.1061 26.0912 17.0365 25.7531 16.8906C25.415 16.7448 25.1416 16.5194 24.9328 16.2145C24.724 15.9096 24.6196 15.5268 24.6196 15.0661V7.53409ZM32.4256 17.1541C31.6733 17.1541 31.0253 16.9934 30.4817 16.6719C29.9415 16.3471 29.5239 15.8913 29.2289 15.3047C28.9372 14.7147 28.7914 14.0237 28.7914 13.2315C28.7914 12.4493 28.9372 11.7599 29.2289 11.1634C29.5239 10.5668 29.9349 10.1011 30.4619 9.76633C30.9922 9.43158 31.612 9.2642 32.3212 9.2642C32.7521 9.2642 33.1697 9.33546 33.5741 9.47798C33.9784 9.6205 34.3414 9.84422 34.6629 10.1491C34.9844 10.4541 35.2379 10.8501 35.4235 11.3374C35.6091 11.8213 35.7019 12.4096 35.7019 13.1023V13.6293H29.6316V12.5156H34.2452C34.2452 12.1245 34.1657 11.7782 34.0066 11.4766C33.8475 11.1716 33.6238 10.9313 33.3354 10.7557C33.0504 10.58 32.7156 10.4922 32.3312 10.4922C31.9136 10.4922 31.549 10.5949 31.2374 10.8004C30.9292 11.0026 30.6906 11.2678 30.5215 11.5959C30.3558 11.9207 30.2729 12.2737 30.2729 12.6548V13.5249C30.2729 14.0353 30.3624 14.4695 30.5414 14.8274C30.7237 15.1854 30.9772 15.4588 31.3021 15.6477C31.6269 15.8333 32.0064 15.9261 32.4406 15.9261C32.7223 15.9261 32.9791 15.8864 33.2112 15.8068C33.4432 15.724 33.6437 15.6013 33.8127 15.4389C33.9817 15.2765 34.111 15.076 34.2005 14.8374L35.6075 15.0909C35.4948 15.5052 35.2926 15.8681 35.0009 16.1797C34.7126 16.4879 34.3496 16.7282 33.9121 16.9006C33.478 17.0696 32.9825 17.1541 32.4256 17.1541Z" fill="white"/>
</svg>
