<svg width="121" height="24" viewBox="0 0 121 24" fill="none" xmlns="http://www.w3.org/2000/svg">
<path d="M14.1652 3.07822L15.8167 6.56396C16.0874 7.13459 16.6101 7.53007 17.2149 7.62167L20.9084 8.18071C22.4312 8.41113 23.0393 10.3599 21.9372 11.4787L19.2638 14.1916C18.8263 14.6358 18.6266 15.2759 18.7299 15.9032L19.3607 19.7343C19.6211 21.3139 18.029 22.5182 16.6674 21.7727L13.3637 19.9649C12.8228 19.6686 12.1765 19.6686 11.6356 19.9649L8.33198 21.7738C6.97035 22.5194 5.37819 21.3137 5.6386 19.7355L6.26947 15.9044C6.3732 15.2768 6.17337 14.6362 5.73556 14.1916L3.06278 11.4784C1.96072 10.3596 2.56885 8.41082 4.09164 8.1804L7.78515 7.62137C8.38994 7.52975 8.91258 7.13424 9.18328 6.56365L10.8342 3.07827C11.516 1.64061 13.4834 1.64056 14.1652 3.07822Z" fill="#FFAE43"/>
<path d="M38.1652 3.07822L39.8167 6.56396C40.0874 7.13459 40.6101 7.53007 41.2149 7.62167L44.9084 8.18071C46.4312 8.41113 47.0393 10.3599 45.9372 11.4787L43.2638 14.1916C42.8263 14.6358 42.6266 15.2759 42.7299 15.9032L43.3607 19.7343C43.6211 21.3139 42.029 22.5182 40.6674 21.7727L37.3637 19.9649C36.8228 19.6686 36.1765 19.6686 35.6356 19.9649L32.332 21.7738C30.9704 22.5194 29.3782 21.3137 29.6386 19.7355L30.2695 15.9044C30.3732 15.2768 30.1734 14.6362 29.7356 14.1916L27.0628 11.4784C25.9607 10.3596 26.5689 8.41082 28.0916 8.1804L31.7852 7.62137C32.3899 7.52975 32.9126 7.13424 33.1833 6.56365L34.8342 3.07827C35.516 1.64061 37.4834 1.64056 38.1652 3.07822Z" fill="#FFAE43"/>
<path d="M62.1652 3.07822L63.8167 6.56396C64.0874 7.13459 64.6101 7.53007 65.2149 7.62167L68.9084 8.18071C70.4312 8.41113 71.0393 10.3599 69.9372 11.4787L67.2638 14.1916C66.8263 14.6358 66.6266 15.2759 66.7299 15.9032L67.3607 19.7343C67.6211 21.3139 66.029 22.5182 64.6674 21.7727L61.3637 19.9649C60.8228 19.6686 60.1765 19.6686 59.6356 19.9649L56.332 21.7738C54.9704 22.5194 53.3782 21.3137 53.6386 19.7355L54.2695 15.9044C54.3732 15.2768 54.1734 14.6362 53.7356 14.1916L51.0628 11.4784C49.9607 10.3596 50.5689 8.41082 52.0916 8.1804L55.7852 7.62137C56.3899 7.52975 56.9126 7.13424 57.1833 6.56365L58.8342 3.07827C59.516 1.64061 61.4834 1.64056 62.1652 3.07822Z" fill="#FFAE43"/>
<path d="M86.1652 3.07822L87.8167 6.56396C88.0874 7.13459 88.6101 7.53007 89.2149 7.62167L92.9084 8.18071C94.4312 8.41113 95.0393 10.3599 93.9372 11.4787L91.2638 14.1916C90.8263 14.6358 90.6266 15.2759 90.7299 15.9032L91.3607 19.7343C91.6211 21.3139 90.029 22.5182 88.6674 21.7727L85.3637 19.9649C84.8228 19.6686 84.1765 19.6686 83.6356 19.9649L80.332 21.7738C78.9704 22.5194 77.3782 21.3137 77.6386 19.7355L78.2695 15.9044C78.3732 15.2768 78.1734 14.6362 77.7356 14.1916L75.0628 11.4784C73.9607 10.3596 74.5689 8.41082 76.0916 8.1804L79.7852 7.62137C80.3899 7.52975 80.9126 7.13424 81.1833 6.56365L82.8342 3.07827C83.516 1.64061 85.4834 1.64056 86.1652 3.07822Z" fill="#FFAE43"/>
<path d="M110.165 3.07822L111.817 6.56396C112.087 7.13459 112.61 7.53007 113.215 7.62167L116.908 8.18071C118.431 8.41113 119.039 10.3599 117.937 11.4787L115.264 14.1916C114.826 14.6358 114.627 15.2759 114.73 15.9032L115.361 19.7343C115.621 21.3139 114.029 22.5182 112.667 21.7727L109.364 19.9649C108.823 19.6686 108.177 19.6686 107.636 19.9649L104.332 21.7738C102.97 22.5194 101.378 21.3137 101.639 19.7355L102.269 15.9044C102.373 15.2768 102.173 14.6362 101.736 14.1916L99.0628 11.4784C97.9607 10.3596 98.5689 8.41082 100.092 8.1804L103.785 7.62137C104.39 7.52975 104.913 7.13424 105.183 6.56365L106.834 3.07827C107.516 1.64061 109.483 1.64056 110.165 3.07822Z" fill="#FFAE43"/>
</svg>
