<svg width="49" height="48" viewBox="0 0 49 48" fill="none" xmlns="http://www.w3.org/2000/svg">
<rect x="0.5" width="48" height="48" rx="5" fill="#F5FAFF"/>
<path d="M24.5 36C31.1274 36 36.5 30.6274 36.5 24C36.5 17.3726 31.1274 12 24.5 12C17.8726 12 12.5 17.3726 12.5 24C12.5 25.5427 12.7911 27.0173 13.3213 28.3721C13.5206 28.8812 13.6061 29.432 13.5153 29.9712L12.6556 35.0763C12.5794 35.5283 12.9717 35.9206 13.4237 35.8444L18.5288 34.9847C19.068 34.8939 19.6188 34.9794 20.1279 35.1787C21.4827 35.7089 22.9573 36 24.5 36Z" fill="#437EF7"/>
</svg>
