<svg width="49" height="48" viewBox="0 0 49 48" fill="none" xmlns="http://www.w3.org/2000/svg">
<rect x="0.5" width="48" height="48" rx="5" fill="#F5FAFF"/>
<path d="M23.5396 12.235C24.1442 11.9217 24.8558 11.9217 25.4604 12.235L35.3129 17.3421C36.8957 18.1625 36.8957 20.5041 35.3129 21.3246L25.4604 26.4316C24.8558 26.745 24.1442 26.745 23.5396 26.4316L13.6871 21.3246C12.1043 20.5041 12.1043 18.1625 13.6871 17.3421L23.5396 12.235Z" fill="#437EF7"/>
<path d="M14.4332 24.1425C13.7755 23.8113 12.9738 24.0759 12.6426 24.7335C12.3113 25.3912 12.5759 26.1929 13.2335 26.5241L23.602 31.7469C24.167 32.0315 24.833 32.0315 25.398 31.7469L35.7665 26.5241C36.4242 26.1929 36.6887 25.3912 36.3575 24.7335C36.0262 24.0759 35.2245 23.8113 34.5669 24.1425L24.5 29.2134L14.4332 24.1425Z" fill="#437EF7"/>
<path d="M14.4332 29.5155C13.7755 29.1842 12.9738 29.4488 12.6426 30.1065C12.3113 30.7641 12.5759 31.5658 13.2335 31.8971L23.602 37.1199C24.167 37.4045 24.833 37.4045 25.398 37.1199L35.7665 31.8971C36.4242 31.5658 36.6887 30.7641 36.3575 30.1065C36.0262 29.4488 35.2245 29.1842 34.5669 29.5155L24.5 34.5863L14.4332 29.5155Z" fill="#437EF7"/>
</svg>
